<?xml version="1.0" encoding="UTF-8" standalone="no"?>
<!DOCTYPE svg PUBLIC "-//W3C//DTD SVG 1.1//EN" "http://www.w3.org/Graphics/SVG/1.1/DTD/svg11.dtd">
<svg width="100%" height="100%" viewBox="0 0 24 24" version="1.1" xmlns="http://www.w3.org/2000/svg" xmlns:xlink="http://www.w3.org/1999/xlink" xml:space="preserve" xmlns:serif="http://www.serif.com/" style="fill-rule:evenodd;clip-rule:evenodd;stroke-linejoin:round;stroke-miterlimit:2;">
    <g transform="matrix(0.027478,0,0,0.027478,-2.063414,-2.071461)">
        <path d="M75.093,311.8L366.364,311.8L366.364,184.417L111.6,184.417C91.647,184.417 75.2,200.776 75.094,220.729L75.093,311.8Z" style="fill:rgb(14,54,147);fill-rule:nonzero;"/>
    </g>
    <g transform="matrix(0.027478,0,0,0.027478,-2.063414,-2.071461)">
        <rect x="366.364" y="184.417" width="291.272" height="127.383" style="fill:rgb(66,108,187);fill-rule:nonzero;"/>
    </g>
    <g transform="matrix(0.027478,0,0,0.027478,-2.063414,-2.071461)">
        <path d="M948.907,311.8L657.636,311.8L657.636,184.417L912.595,184.417C932.515,184.417 948.907,200.809 948.907,220.729L948.907,311.8Z" style="fill:rgb(90,117,209);fill-rule:nonzero;"/>
    </g>
    <g transform="matrix(0.027478,0,0,0.027478,-2.063414,-2.071461)">
        <path d="M912.595,839.777L111.599,839.777C91.572,839.777 75.093,823.298 75.093,803.271L75.093,293.547L948.907,293.547L948.907,803.27C948.907,823.223 932.548,839.67 912.595,839.776L912.595,839.777Z" style="fill:rgb(51,51,51);fill-rule:nonzero;"/>
    </g>
    <g transform="matrix(0.027478,0,0,0.027478,-2.063414,-2.071461)">
        <path d="M351.8,517.437L191.602,677.637C187.425,681.321 185.028,686.63 185.028,692.2C185.028,697.77 187.425,703.079 191.602,706.763L224.418,739.58C228.102,743.758 233.411,746.154 238.982,746.154C244.552,746.154 249.861,743.758 253.545,739.58L413.745,579.38C417.922,575.696 420.319,570.387 420.319,564.817C420.319,559.247 417.922,553.938 413.745,550.254L380.928,517.437C372.592,510.265 360.137,510.265 351.801,517.437L351.8,517.437Z" style="fill:rgb(191,191,191);fill-rule:nonzero;"/>
    </g>
    <g transform="matrix(0.027478,0,0,0.027478,-2.063414,-2.071461)">
        <path d="M253.545,390.054L413.745,550.836C417.923,554.52 420.319,559.829 420.319,565.399C420.319,570.97 417.923,576.279 413.745,579.963L380.928,612.78C377.244,616.958 371.935,619.354 366.365,619.354C360.794,619.354 355.485,616.958 351.801,612.78L191.6,451.998C187.422,448.314 185.026,443.005 185.026,437.434C185.026,431.864 187.422,426.555 191.6,422.871L224.417,390.054C232.686,382.716 245.275,382.716 253.544,390.054L253.545,390.054Z" style="fill:rgb(204,204,204);fill-rule:nonzero;"/>
    </g>
    <g transform="matrix(0.027478,0,0,0.027478,-2.063414,-2.071461)">
        <path d="M253.545,390.054L413.745,550.836C417.923,554.52 420.319,559.829 420.319,565.399C420.319,570.97 417.923,576.279 413.745,579.963L380.928,612.78C377.244,616.958 371.935,619.354 366.365,619.354C360.794,619.354 355.485,616.958 351.801,612.78L191.6,451.998C187.422,448.314 185.026,443.005 185.026,437.434C185.026,431.864 187.422,426.555 191.6,422.871L224.417,390.054C232.686,382.716 245.275,382.716 253.544,390.054L253.545,390.054ZM803.271,657.636L512,657.636C511.667,657.617 511.334,657.607 511,657.607C501.519,657.607 493.718,665.408 493.718,674.889C493.718,675.223 493.728,675.556 493.747,675.889L493.747,730.453C493.728,730.786 493.718,731.119 493.718,731.453C493.718,740.934 501.519,748.735 511,748.735C511.334,748.735 511.667,748.725 512,748.706L803.271,748.706C803.604,748.725 803.937,748.735 804.271,748.735C813.752,748.735 821.553,740.934 821.553,731.453C821.553,731.119 821.543,730.786 821.524,730.453L821.524,675.89C821.543,675.557 821.553,675.224 821.553,674.89C821.553,665.409 813.752,657.608 804.271,657.608C803.937,657.608 803.604,657.618 803.271,657.637L803.271,657.636Z" style="fill:rgb(230,230,230);fill-rule:nonzero;"/>
    </g>
</svg>
