<svg width="48" height="48" viewBox="0 0 256 256" xmlns="http://www.w3.org/2000/svg">
  <defs>
    <linearGradient id="fwGrad" x1="0%" y1="0%" x2="100%" y2="100%">
      <stop offset="0%" style="stop-color:#E8590C;stop-opacity:1" />
      <stop offset="100%" style="stop-color:#FF6B35;stop-opacity:1" />
    </linearGradient>
  </defs>
  <rect width="256" height="256" rx="48" fill="url(#fwGrad)"/>
  <!-- Shield shape -->
  <path d="M128 40 L200 72 L200 140 C200 180 168 210 128 224 C88 210 56 180 56 140 L56 72 Z" fill="white" opacity="0.95"/>
  <!-- Flame / firewall icon inside shield -->
  <path d="M128 80 C128 80 150 100 150 125 C150 140 142 155 128 160 C114 155 106 140 106 125 C106 100 128 80 128 80Z" fill="url(#fwGrad)"/>
  <path d="M128 105 C128 105 140 118 140 130 C140 138 135 145 128 148 C121 145 116 138 116 130 C116 118 128 105 128 105Z" fill="white" opacity="0.9"/>
  <!-- Horizontal bars representing rules -->
  <rect x="100" y="172" width="56" height="6" rx="3" fill="url(#fwGrad)" opacity="0.6"/>
  <rect x="110" y="184" width="36" height="6" rx="3" fill="url(#fwGrad)" opacity="0.4"/>
  <rect x="105" y="196" width="46" height="6" rx="3" fill="url(#fwGrad)" opacity="0.3"/>
</svg>
