<svg viewBox="0 0 24 24" xmlns="http://www.w3.org/2000/svg">
  <defs>
    <linearGradient id="gearGradient" x1="0%" y1="0%" x2="0%" y2="100%">
      <stop offset="0%" style="stop-color:#818A92;stop-opacity:1" />
      <stop offset="100%" style="stop-color:#66727C;stop-opacity:1" />
    </linearGradient>
    <linearGradient id="circleGradient" x1="0%" y1="0%" x2="0%" y2="100%">
      <stop offset="0%" style="stop-color:#06A1AE;stop-opacity:1" />
      <stop offset="100%" style="stop-color:#0E5195;stop-opacity:1" />
    </linearGradient>
  </defs>
  <path d="M12 2C10.75 2 9.6 2.15 8.5 2.4L8 4.5C7.1 4.8 6.3 5.2 5.5 5.8L3.6 4.8C2.5 5.8 1.7 6.9 1.1 8.2L2.8 9.8C2.6 10.5 2.5 11.2 2.5 12C2.5 12.8 2.6 13.5 2.8 14.2L1.1 15.8C1.7 17.1 2.5 18.2 3.6 19.2L5.5 18.2C6.3 18.8 7.1 19.2 8 19.5L8.5 21.6C9.6 21.85 10.75 22 12 22C13.25 22 14.4 21.85 15.5 21.6L16 19.5C16.9 19.2 17.7 18.8 18.5 18.2L20.4 19.2C21.5 18.2 22.3 17.1 22.9 15.8L21.2 14.2C21.4 13.5 21.5 12.8 21.5 12C21.5 11.2 21.4 10.5 21.2 9.8L22.9 8.2C22.3 6.9 21.5 5.8 20.4 4.8L18.5 5.8C17.7 5.2 16.9 4.8 16 4.5L15.5 2.4C14.4 2.15 13.25 2 12 2ZM12 7C14.76 7 17 9.24 17 12C17 14.76 14.76 17 12 17C9.24 17 7 14.76 7 12C7 9.24 9.24 7 12 7Z" fill="url(#gearGradient)"/>
  <circle cx="12" cy="12" r="3" fill="url(#circleGradient)" stroke="white" stroke-width="0.5"/>
</svg>
