<?xml version="1.0" encoding="UTF-8" standalone="no"?>
<!DOCTYPE svg PUBLIC "-//W3C//DTD SVG 1.1//EN" "http://www.w3.org/Graphics/SVG/1.1/DTD/svg11.dtd">
<svg width="100%" height="100%" viewBox="0 0 24 24" version="1.1" xmlns="http://www.w3.org/2000/svg" xmlns:xlink="http://www.w3.org/1999/xlink" xml:space="preserve" xmlns:serif="http://www.serif.com/" style="fill-rule:evenodd;clip-rule:evenodd;stroke-linecap:round;stroke-linejoin:round;stroke-miterlimit:10;">
    <g transform="matrix(0.028239,0,0,0.028239,1.83214,-3.271645)">
        <rect x="-64.88" y="115.856" width="850" height="850" style="fill:none;fill-rule:nonzero;"/>
    </g>
    <g transform="matrix(0.508206,0,0,0.229981,2.764706,6.265493)">
        <path d="M40.482,36.421C40.482,41.028 33.42,44.818 24.837,44.818C16.255,44.818 9.192,41.028 9.192,36.421C9.192,31.815 16.255,28.024 24.837,28.024C33.42,28.024 40.482,31.815 40.482,36.421Z" style="fill:url(#_Radial1);"/>
    </g>
    <g transform="matrix(0.518419,0,0,0.229981,-4.031811,13.301799)">
        <path d="M40.482,36.421C40.482,41.028 33.42,44.818 24.837,44.818C16.255,44.818 9.192,41.028 9.192,36.421C9.192,31.815 16.255,28.024 24.837,28.024C33.42,28.024 40.482,31.815 40.482,36.421Z" style="fill:url(#_Radial2);"/>
    </g>
    <g transform="matrix(0.028239,0,0,0.028239,1.83214,-3.271645)">
        <path d="M441.337,771.157L441.337,525.276L264.184,525.276L264.184,415.442L-10.017,649.664L263.391,880.071L264.298,771.085L441.337,771.157Z" style="fill:url(#_Linear3);stroke:rgb(78,154,6);stroke-width:13.68px;"/>
    </g>
    <g transform="matrix(0.028239,0,0,0.028239,1.83214,-3.271645)">
        <path d="M257.141,865.615L257.141,764.264L346.887,763.353C196.434,686.001 225.922,544.614 133.147,536.391L2.604,649.772L257.141,865.615Z" style="fill:url(#_Radial4);"/>
    </g>
    <g transform="matrix(0.028239,0,0,0.028239,1.83214,-3.271645)">
        <path d="M427.66,755.963L427.66,538.5L249.954,538.5L249.954,445.373L11.468,649.85L250.548,850.992L250.246,757.709L427.66,755.963Z" style="fill:none;fill-rule:nonzero;stroke:white;stroke-opacity:0.48;stroke-width:13.68px;stroke-linecap:butt;stroke-linejoin:miter;"/>
    </g>
    <g transform="matrix(0.028239,0,0,0.028239,1.83214,-3.271645)">
        <path d="M272.014,515.466L272.014,269.584L449.167,269.584L449.167,159.75L723.368,393.972L449.96,624.379L449.053,515.393L272.014,515.466Z" style="fill:url(#_Radial5);stroke:rgb(32,74,135);stroke-width:13.68px;"/>
    </g>
    <g transform="matrix(0.028239,0,0,0.028239,1.83214,-3.271645)">
        <path d="M456.209,609.923L456.209,508.572L366.463,507.661C516.917,430.309 487.429,288.923 580.204,280.699L710.747,394.08L456.209,609.923Z" style="fill:url(#_Radial6);"/>
    </g>
    <g transform="matrix(0.028239,0,0,0.028239,1.83214,-3.271645)">
        <path d="M285.691,500.271L285.691,282.808L463.396,282.808L463.396,189.681L701.883,394.158L462.803,595.3L463.105,502.017L285.691,500.271Z" style="fill:none;fill-rule:nonzero;stroke:white;stroke-opacity:0.48;stroke-width:13.68px;stroke-linecap:butt;stroke-linejoin:miter;"/>
    </g>
    <defs>
        <radialGradient id="_Radial1" cx="0" cy="0" r="1" gradientUnits="userSpaceOnUse" gradientTransform="matrix(15.644737,0,0,8.396843,24.837126,36.421007)"><stop offset="0" style="stop-color:black;stop-opacity:0.3"/><stop offset="1" style="stop-color:black;stop-opacity:0"/></radialGradient>
        <radialGradient id="_Radial2" cx="0" cy="0" r="1" gradientUnits="userSpaceOnUse" gradientTransform="matrix(15.644737,0,0,8.396843,24.837126,36.421007)"><stop offset="0" style="stop-color:black;stop-opacity:0.3"/><stop offset="1" style="stop-color:black;stop-opacity:0"/></radialGradient>
        <linearGradient id="_Linear3" x1="0" y1="0" x2="1" y2="0" gradientUnits="userSpaceOnUse" gradientTransform="matrix(-0,-478.307105,478.307105,-0,215.660826,886.90929)"><stop offset="0" style="stop-color:rgb(138,226,52);stop-opacity:1"/><stop offset="1" style="stop-color:rgb(78,154,6);stop-opacity:1"/></linearGradient>
        <radialGradient id="_Radial4" cx="0" cy="0" r="1" gradientUnits="userSpaceOnUse" gradientTransform="matrix(-480.68337,0,0,-365.811755,143.318941,922.994194)"><stop offset="0" style="stop-color:white;stop-opacity:0.51"/><stop offset="1" style="stop-color:white;stop-opacity:0"/></radialGradient>
        <radialGradient id="_Radial5" cx="0" cy="0" r="1" gradientUnits="userSpaceOnUse" gradientTransform="matrix(195.506003,0,0,-236.588163,346.638733,392.064355)"><stop offset="0" style="stop-color:rgb(114,159,207);stop-opacity:1"/><stop offset="1" style="stop-color:rgb(52,101,164);stop-opacity:1"/></radialGradient>
        <radialGradient id="_Radial6" cx="0" cy="0" r="1" gradientUnits="userSpaceOnUse" gradientTransform="matrix(480.68337,0,0,-365.811755,570.032419,667.302364)"><stop offset="0" style="stop-color:white;stop-opacity:0.51"/><stop offset="1" style="stop-color:white;stop-opacity:0"/></radialGradient>
    </defs>
</svg>
