<svg width="48" height="48" viewBox="0 0 256 256" xmlns="http://www.w3.org/2000/svg">
  <defs>
    <linearGradient id="fvGrad" x1="0%" y1="0%" x2="100%" y2="100%">
      <stop offset="0%" style="stop-color:#0C8599;stop-opacity:1" />
      <stop offset="100%" style="stop-color:#22B8CF;stop-opacity:1" />
    </linearGradient>
  </defs>
  <rect width="256" height="256" rx="48" fill="url(#fvGrad)"/>
  <!-- Document shape -->
  <path d="M72 40 L160 40 L192 72 L192 216 L72 216 Z" fill="white" opacity="0.95"/>
  <!-- Folded corner -->
  <path d="M160 40 L160 72 L192 72 Z" fill="white" opacity="0.6"/>
  <path d="M160 40 L160 72 L192 72 Z" fill="url(#fvGrad)" opacity="0.2"/>
  <!-- Text lines -->
  <rect x="92" y="96" width="80" height="8" rx="4" fill="url(#fvGrad)" opacity="0.5"/>
  <rect x="92" y="116" width="64" height="8" rx="4" fill="url(#fvGrad)" opacity="0.4"/>
  <rect x="92" y="136" width="72" height="8" rx="4" fill="url(#fvGrad)" opacity="0.35"/>
  <rect x="92" y="156" width="56" height="8" rx="4" fill="url(#fvGrad)" opacity="0.3"/>
  <!-- Image preview area -->
  <rect x="92" y="176" width="48" height="28" rx="4" fill="url(#fvGrad)" opacity="0.2"/>
  <circle cx="106" cy="188" r="5" fill="url(#fvGrad)" opacity="0.4"/>
  <path d="M96 200 L110 188 L122 196 L130 190 L138 200 Z" fill="url(#fvGrad)" opacity="0.3"/>
</svg>
