<svg width="48" height="48" viewBox="0 0 256 256" xmlns="http://www.w3.org/2000/svg">
  <defs>
    <linearGradient id="dockerGrad" x1="0%" y1="0%" x2="100%" y2="100%">
      <stop offset="0%" style="stop-color:#2396ED;stop-opacity:1" />
      <stop offset="100%" style="stop-color:#60CDFF;stop-opacity:1" />
    </linearGradient>
  </defs>
  <rect width="256" height="256" rx="48" fill="url(#dockerGrad)"/>
  <!-- Whale tail -->
  <path d="M60 140 C60 140 65 105 105 100 C105 100 100 75 130 65 C130 65 125 55 140 50 C155 45 165 55 165 55 C165 55 175 45 185 50 C195 55 190 70 190 70 C190 70 205 75 205 90 C205 105 190 115 190 115 L60 140Z" fill="white" opacity="0.9"/>
  <!-- Container boxes on whale -->
  <rect x="65" y="110" width="14" height="10" rx="2" fill="url(#dockerGrad)" opacity="0.8"/>
  <rect x="82" y="110" width="14" height="10" rx="2" fill="url(#dockerGrad)" opacity="0.8"/>
  <rect x="99" y="110" width="14" height="10" rx="2" fill="url(#dockerGrad)" opacity="0.8"/>
  <rect x="116" y="110" width="14" height="10" rx="2" fill="url(#dockerGrad)" opacity="0.8"/>
  <rect x="133" y="110" width="14" height="10" rx="2" fill="url(#dockerGrad)" opacity="0.8"/>
  <rect x="150" y="110" width="14" height="10" rx="2" fill="url(#dockerGrad)" opacity="0.8"/>
  <rect x="82" y="97" width="14" height="10" rx="2" fill="url(#dockerGrad)" opacity="0.8"/>
  <rect x="99" y="97" width="14" height="10" rx="2" fill="url(#dockerGrad)" opacity="0.8"/>
  <rect x="116" y="97" width="14" height="10" rx="2" fill="url(#dockerGrad)" opacity="0.8"/>
  <rect x="133" y="97" width="14" height="10" rx="2" fill="url(#dockerGrad)" opacity="0.8"/>
  <rect x="99" y="84" width="14" height="10" rx="2" fill="url(#dockerGrad)" opacity="0.8"/>
  <rect x="116" y="84" width="14" height="10" rx="2" fill="url(#dockerGrad)" opacity="0.8"/>
</svg>
